<svg width="218" height="218" viewBox="0 0 218 218" fill="none" xmlns="http://www.w3.org/2000/svg">
<path d="M27.25 109H109V122.625H27.25V109ZM13.625 74.9375H81.75V88.5625H13.625V74.9375Z" fill="#F5D648"/>
<path d="M203.823 113.128L183.386 65.4409C182.861 64.2152 181.988 63.1705 180.875 62.4366C179.762 61.7026 178.458 61.3118 177.125 61.3125H156.688V47.6875C156.688 45.8807 155.97 44.1479 154.692 42.8703C153.415 41.5927 151.682 40.875 149.875 40.875H40.875V54.5H143.062V140.038C139.958 141.84 137.242 144.24 135.069 147.097C132.897 149.955 131.311 153.214 130.405 156.687H87.5951C85.937 150.266 81.9937 144.669 76.5043 140.947C71.0149 137.224 64.3564 135.631 57.7768 136.467C51.1972 137.303 45.1482 140.51 40.7638 145.486C36.3793 150.463 33.9604 156.868 33.9604 163.5C33.9604 170.132 36.3793 176.537 40.7638 181.514C45.1482 186.49 51.1972 189.697 57.7768 190.533C64.3564 191.369 71.0149 189.776 76.5043 186.053C81.9937 182.331 85.937 176.734 87.5951 170.312H130.405C131.887 176.159 135.276 181.345 140.036 185.049C144.796 188.753 150.656 190.764 156.688 190.764C162.719 190.764 168.579 188.753 173.339 185.049C178.099 181.345 181.488 176.159 182.97 170.312H197.562C199.369 170.312 201.102 169.595 202.38 168.317C203.657 167.04 204.375 165.307 204.375 163.5V115.812C204.375 114.89 204.188 113.976 203.823 113.128ZM61.3125 177.125C58.6177 177.125 55.9835 176.326 53.7428 174.829C51.5022 173.332 49.7559 171.204 48.7246 168.714C47.6934 166.224 47.4236 163.485 47.9493 160.842C48.475 158.199 49.7727 155.771 51.6782 153.866C53.5837 151.96 56.0114 150.663 58.6544 150.137C61.2974 149.611 64.0369 149.881 66.5266 150.912C69.0162 151.943 71.1441 153.69 72.6413 155.93C74.1384 158.171 74.9375 160.805 74.9375 163.5C74.9339 167.112 73.4972 170.576 70.9428 173.13C68.3884 175.685 64.925 177.121 61.3125 177.125ZM156.688 74.9375H172.629L187.235 109H156.688V74.9375ZM156.688 177.125C153.993 177.125 151.358 176.326 149.118 174.829C146.877 173.332 145.131 171.204 144.1 168.714C143.068 166.224 142.799 163.485 143.324 160.842C143.85 158.199 145.148 155.771 147.053 153.866C148.959 151.96 151.386 150.663 154.029 150.137C156.672 149.611 159.412 149.881 161.902 150.912C164.391 151.943 166.519 153.69 168.016 155.93C169.513 158.171 170.312 160.805 170.312 163.5C170.309 167.112 168.872 170.576 166.318 173.13C163.763 175.685 160.3 177.121 156.688 177.125ZM190.75 156.687H182.97C181.469 150.852 178.075 145.68 173.318 141.981C168.562 138.282 162.713 136.267 156.688 136.25V122.625H190.75V156.687Z" fill="#F5D648"/>
</svg>
