<svg width="236" height="236" viewBox="0 0 236 236" fill="none" xmlns="http://www.w3.org/2000/svg">
<path fill-rule="evenodd" clip-rule="evenodd" d="M163.327 64.9492L162.884 64.605C162.034 58.1445 158.941 51.4136 154.113 45.7398C146.271 36.521 133.487 29.5 116.377 29.5C99.5133 29.5 87.6297 37.1897 80.6186 46.7231C77.3482 51.1333 75.0111 56.1638 73.75 61.5075C73.5204 62.5081 73.3366 63.5188 73.1993 64.5362L72.6683 64.9443C67.142 69.2267 63.0857 74.4187 64.0494 80.3728C64.9737 86.1253 70.1756 89.6259 75.0136 91.7647C76.2427 92.3104 77.5702 92.8218 78.9813 93.2987C78.2704 98.8411 78.7487 104.471 80.3841 109.815C82.0196 115.158 84.7747 120.091 88.466 124.286C92.1574 128.481 96.7001 131.841 101.792 134.143C106.884 136.445 112.407 137.636 117.995 137.636C123.583 137.636 129.107 136.445 134.198 134.143C139.29 131.841 143.833 128.481 147.524 124.286C151.215 120.091 153.971 115.158 155.606 109.815C157.241 104.471 157.72 98.8411 157.009 93.2987C158.42 92.8218 159.747 92.3153 160.977 91.7647C165.815 89.6259 171.011 86.1253 171.941 80.3728C172.904 74.4187 168.848 69.2267 163.322 64.9443L163.327 64.9492ZM83.3129 72.1373C82.6737 70.2985 82.5066 67.3436 83.3375 63.6905C84.1537 60.1259 85.845 56.2172 88.5 52.5985V66.375C88.5 67.679 89.018 68.9296 89.94 69.8516C90.8621 70.7737 92.1127 71.2917 93.4167 71.2917C94.7206 71.2917 95.9712 70.7737 96.8933 69.8516C97.8153 68.9296 98.3333 67.679 98.3333 66.375V43.8075C102.38 41.5065 107.272 39.8987 113.083 39.4562V56.5417C113.083 57.8456 113.601 59.0962 114.523 60.0183C115.445 60.9403 116.696 61.4583 118 61.4583C119.304 61.4583 120.555 60.9403 121.477 60.0183C122.399 59.0962 122.917 57.8456 122.917 56.5417V39.7611C128.108 40.4155 133.121 42.0862 137.667 44.6778V66.375C137.667 67.679 138.185 68.9296 139.107 69.8516C140.029 70.7737 141.279 71.2917 142.583 71.2917C143.887 71.2917 145.138 70.7737 146.06 69.8516C146.982 68.9296 147.5 67.679 147.5 66.375V53.1885C152.933 60.1505 154.206 67.6632 152.677 72.1718C152.298 73.2876 152.333 74.5024 152.775 75.5949C153.216 76.6875 154.036 77.585 155.084 78.1241C156.131 78.6632 157.338 78.8081 158.484 78.5323C159.629 78.2564 160.638 77.5783 161.326 76.6213C162.294 77.9734 162.26 78.6913 162.24 78.8043C162.176 79.1977 161.424 80.8202 157.004 82.777C155.086 83.6227 152.805 84.3848 150.243 85.0583L150.125 85.0878C147.348 85.8057 144.255 86.4153 140.946 86.9168C134.809 87.8017 128.624 88.3108 122.425 88.441C118.164 88.5475 113.9 88.5016 109.642 88.3033C104.744 88.0841 99.8604 87.6181 95.0096 86.907C91.9349 86.4604 88.8857 85.8532 85.8745 85.0878L85.7565 85.0583C83.4464 84.4774 81.1858 83.7146 78.9961 82.777C74.576 80.8202 73.8237 79.1977 73.7598 78.8043C73.7402 78.6913 73.7057 77.9734 74.6743 76.6213C75.3631 77.5826 76.3754 78.2634 77.5254 78.5389C78.6755 78.8145 79.8863 78.6662 80.936 78.1214C81.9856 77.5765 82.8037 76.6716 83.2403 75.5726C83.6768 74.4735 83.7026 73.2539 83.3129 72.1373ZM88.6082 95.7816C90.2405 96.1012 91.9318 96.3913 93.6625 96.6518C98.9135 97.4385 104.568 97.94 110.32 98.176C115.448 98.3867 120.582 98.3867 125.709 98.176C131.432 97.94 137.067 97.4385 142.293 96.6518C144 96.4034 145.7 96.1132 147.392 95.7816C147.741 99.8533 147.241 103.953 145.923 107.822C144.605 111.69 142.497 115.242 139.734 118.253C136.97 121.264 133.611 123.668 129.87 125.312C126.129 126.956 122.087 127.806 118 127.806C113.913 127.806 109.871 126.956 106.13 125.312C102.388 123.668 99.0297 121.264 96.2663 118.253C93.5029 115.242 91.3953 111.69 90.077 107.822C88.7587 103.953 88.2585 99.8533 88.6082 95.7816Z" fill="#F5D648"/>
<path fill-rule="evenodd" clip-rule="evenodd" d="M142.583 140.076C145.818 140.641 149.113 141.3 152.417 142.052C179.178 148.164 206.5 160.382 206.5 177V206.5H29.5V177C29.5 160.382 56.8219 148.164 83.5833 142.052C86.8436 141.309 90.1225 140.65 93.4167 140.076V162.25H142.583V140.076ZM73.75 154.826C76.9655 153.842 80.2646 152.953 83.5833 152.151V172.083H152.417V152.156C157.397 153.348 162.319 154.772 167.167 156.424V196.667H177V160.269C178.426 160.903 179.803 161.557 181.12 162.23C186.71 165.072 190.855 168.002 193.481 170.805C196.062 173.558 196.667 175.589 196.667 177V196.667H39.3333V177C39.3333 175.589 39.9381 173.558 42.5193 170.805C45.1448 168.002 49.2896 165.072 54.8798 162.23C57.6774 160.804 60.711 159.467 63.9167 158.223V196.667H73.75V154.831V154.826Z" fill="#F5D648"/>
</svg>
