<?xml version="1.0" encoding="utf-8"?>
<!-- Generator: Adobe Illustrator 26.0.3, SVG Export Plug-In . SVG Version: 6.00 Build 0)  -->
<svg version="1.1" id="Capa_1" xmlns:serif="http://www.serif.com/"
	 xmlns="http://www.w3.org/2000/svg" xmlns:xlink="http://www.w3.org/1999/xlink" x="0px" y="0px" viewBox="0 0 1366 768"
	 style="enable-background:new 0 0 1366 768;" xml:space="preserve">
<path d="M683,0C470.9,0,299,171.9,299,384c0,191.7,140.4,350.5,324,379.3V495h-97.5V384H623v-84.6c0-96.2,57.3-149.4,145-149.4
	c38.7,0,79.1,6.4,85.2,7.4c0.5,0.1,0.8,0.1,0.8,0.1V252h-48.4c-43.2,0-59.5,24.3-62.2,51.5c-0.3,2.8-0.4,5.6-0.4,8.5v72h106.5
	l-17,111H743v268.3c183.6-28.8,324-187.7,324-379.3C1067,171.9,895.1,0,683,0z"/>
</svg>
