<?xml version="1.0" encoding="utf-8"?>
<!-- Generator: Adobe Illustrator 26.0.3, SVG Export Plug-In . SVG Version: 6.00 Build 0)  -->
<svg version="1.1" id="Capa_1" xmlns:serif="http://www.serif.com/"
	 xmlns="http://www.w3.org/2000/svg" xmlns:xlink="http://www.w3.org/1999/xlink" x="0px" y="0px" viewBox="0 0 1366 768"
	 style="enable-background:new 0 0 1366 768;" xml:space="preserve">
<style type="text/css">
	.st0{fill-rule:evenodd;clip-rule:evenodd;}
</style>
<path class="st0" d="M683,0c211.9,0,384,172.1,384,384S894.9,768,683,768S299,595.9,299,384S471.1,0,683,0z M683,144
	c-65.2,0-73.4,0.3-99,1.4c-25.5,1.2-43,5.2-58.3,11.2c-15.8,6.1-29.2,14.3-42.5,27.7c-13.3,13.3-21.5,26.7-27.7,42.5
	c-5.9,15.3-10,32.7-11.2,58.3c-1.2,25.6-1.4,33.8-1.4,99s0.3,73.4,1.4,99c1.2,25.5,5.2,43,11.2,58.3c6.1,15.8,14.3,29.2,27.7,42.5
	c13.3,13.3,26.7,21.5,42.5,27.7c15.3,5.9,32.7,10,58.3,11.2c25.6,1.2,33.8,1.4,99,1.4s73.4-0.3,99-1.4c25.5-1.2,43-5.2,58.3-11.2
	c15.8-6.1,29.2-14.3,42.5-27.7c13.3-13.3,21.5-26.7,27.7-42.5c5.9-15.3,10-32.7,11.2-58.3c1.2-25.6,1.4-33.8,1.4-99
	s-0.3-73.4-1.4-99c-1.2-25.5-5.2-43-11.2-58.3c-6.1-15.8-14.3-29.2-27.7-42.5c-13.3-13.3-26.7-21.5-42.5-27.7
	c-15.3-5.9-32.7-10-58.3-11.2C756.4,144.3,748.2,144,683,144z M683,187.2c64.1,0,71.7,0.2,97,1.4c23.4,1.1,36.1,5,44.6,8.3
	c11.2,4.4,19.2,9.6,27.6,18c8.4,8.4,13.6,16.4,18,27.6c3.3,8.5,7.2,21.2,8.3,44.6c1.2,25.3,1.4,32.9,1.4,97s-0.2,71.7-1.4,97
	c-1.1,23.4-5,36.1-8.3,44.6c-4.4,11.2-9.6,19.2-18,27.6c-8.4,8.4-16.4,13.6-27.6,18c-8.5,3.3-21.2,7.2-44.6,8.3
	c-25.3,1.2-32.9,1.4-97,1.4s-71.7-0.2-97-1.4c-23.4-1.1-36.1-5-44.6-8.3c-11.2-4.4-19.2-9.6-27.6-18c-8.4-8.4-13.6-16.4-18-27.6
	c-3.3-8.5-7.2-21.2-8.3-44.6c-1.2-25.3-1.4-32.9-1.4-97s0.2-71.7,1.4-97c1.1-23.4,5-36.1,8.3-44.6c4.4-11.2,9.6-19.2,18-27.6
	c8.4-8.4,16.4-13.6,27.6-18c8.5-3.3,21.2-7.2,44.6-8.3C611.3,187.5,618.9,187.2,683,187.2L683,187.2z M683,260.8
	c-68.1,0-123.2,55.2-123.2,123.2S614.9,507.2,683,507.2S806.2,452.1,806.2,384S751.1,260.8,683,260.8L683,260.8z M683,464
	c-44.2,0-80-35.8-80-80s35.8-80,80-80s80,35.8,80,80S727.2,464,683,464z M839.9,255.9c0,15.9-12.9,28.8-28.8,28.8
	c-15.9,0-28.8-12.9-28.8-28.8s12.9-28.8,28.8-28.8C827,227.1,839.9,240,839.9,255.9z"/>
</svg>
