<?xml version="1.0" encoding="utf-8"?>
<!-- Generator: Adobe Illustrator 26.0.3, SVG Export Plug-In . SVG Version: 6.00 Build 0)  -->
<svg version="1.1" id="Capa_1" xmlns="http://www.w3.org/2000/svg" xmlns:xlink="http://www.w3.org/1999/xlink" x="0px" y="0px"
	 viewBox="0 0 222 64" style="enable-background:new 0 0 222 64;" xml:space="preserve">
<style type="text/css">
	.st0{fill:#010101;}
	.st1{fill:#0D64A4;}
	.st2{fill:#E34134;}
	.st3{fill:#FFFFFF;}
	.st4{fill:#F2D612;}
	.st5{fill:#EB403A;}
	.st6{fill:#287EB5;}
</style>
<g>
	<g>
		<g>
			<path class="st0" d="M30.4,36.1c-0.6,0.3-1.3,0.6-1.9,0.8c-0.7,0.2-1.3,0.3-2,0.4c-0.7,0.1-1.4,0.1-2.1,0.1
				c-1.3,0-2.5-0.2-3.6-0.5c-1.1-0.4-2-0.9-2.7-1.6c-0.8-0.7-1.3-1.6-1.7-2.5c-0.4-1-0.6-2-0.6-3.1c0-1.3,0.2-2.5,0.7-3.4
				c0.5-1,1.1-1.8,1.9-2.5c0.8-0.7,1.7-1.1,2.8-1.4c1-0.3,2.1-0.5,3.3-0.5c1.7,0,3.7,0.4,5.9,1.1V27c-0.8-0.5-1.5-0.9-2.2-1.2
				c-0.7-0.3-1.6-0.5-2.6-0.5c-0.9,0-1.7,0.2-2.5,0.5c-0.8,0.4-1.4,0.8-1.9,1.5c-0.5,0.7-0.7,1.4-0.7,2.3c0,0.8,0.2,1.5,0.6,2.1
				c0.4,0.6,1,1.2,1.7,1.5c0.7,0.4,1.6,0.6,2.5,0.6c0.7,0,1.4-0.1,2.1-0.3c0.6-0.2,1.2-0.4,1.7-0.6c0.5-0.2,0.9-0.5,1.4-0.8V36.1z"
				/>
			<path class="st0" d="M49.4,29.6c0,1.4-0.3,2.7-1,3.9c-0.7,1.2-1.6,2.1-2.9,2.8c-1.3,0.7-2.9,1.1-4.7,1.1c-1.9,0-3.5-0.4-4.8-1.1
				c-1.3-0.7-2.3-1.7-2.9-2.9c-0.6-1.2-1-2.5-1-3.8c0-1.4,0.3-2.6,0.9-3.8c0.6-1.2,1.6-2.1,2.9-2.9c1.3-0.7,2.9-1.1,4.8-1.1
				c1.4,0,2.7,0.2,3.8,0.6c1.1,0.4,2,1,2.7,1.7c0.7,0.7,1.2,1.5,1.6,2.5C49.2,27.5,49.4,28.5,49.4,29.6 M44.8,29.6
				c0-0.6-0.1-1.1-0.3-1.6c-0.2-0.5-0.4-0.9-0.8-1.2c-0.3-0.4-0.8-0.6-1.2-0.8c-0.5-0.2-1.1-0.3-1.7-0.3c-1.2,0-2.2,0.4-2.9,1.1
				c-0.7,0.7-1.1,1.7-1.1,2.8c0,1.2,0.4,2.1,1.1,2.8c0.7,0.7,1.7,1.1,2.9,1.1c0.8,0,1.6-0.2,2.2-0.5c0.6-0.3,1-0.8,1.3-1.4
				C44.6,31,44.8,30.3,44.8,29.6"/>
			<polygon class="st0" points="67.3,37.1 63.2,37.1 55.3,28.6 55.3,37.1 50.8,37.1 50.8,21.9 54.8,21.9 62.7,30.3 62.7,21.9 
				67.3,21.9 			"/>
			<path class="st0" d="M81.2,32.8c0,1-0.2,1.8-0.7,2.5c-0.5,0.7-1.2,1.2-2,1.6c-0.9,0.4-1.9,0.5-3,0.5c-0.3,0-0.7,0-1.2-0.1
				c-0.5-0.1-1.1-0.2-1.8-0.3c-0.7-0.2-1.5-0.5-2.4-0.8v-3.7c0.8,0.5,1.5,0.9,2.3,1.2c0.7,0.3,1.5,0.5,2.4,0.5
				c0.8,0,1.3-0.1,1.5-0.4c0.2-0.3,0.3-0.5,0.3-0.7c0-0.4-0.2-0.8-0.6-1c-0.4-0.3-1-0.6-1.7-0.9c-0.8-0.4-1.6-0.7-2.2-1.2
				c-0.6-0.4-1.1-0.9-1.5-1.6C70.2,27.8,70,27,70,26.2c0-0.8,0.2-1.6,0.6-2.2c0.4-0.7,1-1.2,1.8-1.6c0.8-0.4,1.8-0.6,3-0.6
				c0.8,0,1.6,0.1,2.4,0.2c0.7,0.2,1.3,0.3,1.8,0.6c0.5,0.2,0.8,0.4,1,0.5v3.6c-0.6-0.4-1.3-0.8-2.1-1.2c-0.8-0.4-1.6-0.5-2.5-0.5
				c-0.6,0-1,0.1-1.2,0.3c-0.3,0.2-0.4,0.5-0.4,0.8c0,0.3,0.1,0.6,0.4,0.8c0.3,0.2,0.7,0.5,1.4,0.8c1.2,0.6,2.1,1,2.8,1.5
				c0.7,0.4,1.3,0.9,1.7,1.5C81,31.2,81.2,31.9,81.2,32.8"/>
			<polygon class="st0" points="96.5,25.7 91.8,25.7 91.8,37.2 87.3,37.2 87.3,25.7 82.7,25.7 82.7,22 96.5,22 			"/>
			<path class="st0" d="M113.3,37.2h-4.9l-1.2-2.7c-0.4-1-0.8-1.7-1.2-2.2c-0.4-0.5-0.7-0.8-1-0.9c-0.3-0.1-0.8-0.2-1.3-0.2h-0.5
				v5.9h-4.6V22h7.8c1.3,0,2.3,0.3,3.1,0.8c0.8,0.5,1.4,1.1,1.7,1.9c0.4,0.7,0.5,1.4,0.5,2.1c0,0.8-0.2,1.4-0.4,1.9
				c-0.3,0.5-0.6,0.9-0.9,1.2c-0.3,0.2-0.7,0.5-1.1,0.7c0.5,0.3,0.9,0.6,1.2,1c0.3,0.4,0.7,1.2,1.3,2.4L113.3,37.2z M107,26.8
				c0-0.7-0.2-1.2-0.7-1.5c-0.5-0.3-1.2-0.4-2.3-0.4h-1v3.7h1c1.1,0,1.9-0.1,2.3-0.4C106.8,28,107,27.5,107,26.8"/>
			<path class="st0" d="M130.1,30.4c0,1.3-0.3,2.4-0.7,3.3c-0.5,0.9-1.1,1.7-1.9,2.2c-0.8,0.5-1.7,0.9-2.6,1.1
				c-0.9,0.2-1.9,0.4-2.8,0.4c-1.3,0-2.5-0.2-3.8-0.7c-1.2-0.4-2.2-1.2-3.1-2.2c-0.8-1.1-1.2-2.4-1.2-4.1V22h4.6v7.2
				c0,1,0.1,1.8,0.4,2.5c0.3,0.6,0.7,1.1,1.2,1.4c0.5,0.3,1.1,0.5,1.8,0.5c0.7,0,1.3-0.2,1.8-0.4c0.5-0.3,0.9-0.8,1.2-1.4
				c0.3-0.6,0.4-1.5,0.4-2.5V22h4.6V30.4z"/>
			<path class="st0" d="M146.8,36.1c-0.6,0.3-1.3,0.6-1.9,0.8c-0.7,0.2-1.3,0.3-2,0.4c-0.7,0.1-1.4,0.1-2.1,0.1
				c-1.3,0-2.5-0.2-3.6-0.5c-1-0.4-2-0.9-2.7-1.6c-0.8-0.7-1.4-1.6-1.7-2.5c-0.4-1-0.6-2-0.6-3.1c0-1.3,0.2-2.5,0.7-3.4
				c0.5-1,1.1-1.8,1.9-2.5c0.8-0.7,1.7-1.1,2.8-1.4c1-0.3,2.1-0.5,3.3-0.5c1.7,0,3.7,0.4,5.9,1.1V27c-0.7-0.5-1.5-0.9-2.2-1.2
				c-0.7-0.3-1.6-0.5-2.6-0.5c-0.9,0-1.7,0.2-2.5,0.5c-0.8,0.4-1.4,0.8-1.9,1.5c-0.5,0.7-0.7,1.4-0.7,2.3c0,0.8,0.2,1.5,0.6,2.1
				c0.4,0.6,1,1.2,1.7,1.5c0.7,0.4,1.6,0.6,2.5,0.6c0.7,0,1.4-0.1,2.1-0.3c0.7-0.2,1.2-0.4,1.7-0.6c0.5-0.2,0.9-0.5,1.4-0.8V36.1z"
				/>
			<polygon class="st0" points="162.7,25.7 158,25.7 158,37.2 153.4,37.2 153.4,25.7 149,25.7 149,22 162.7,22 			"/>
			<path class="st0" d="M181.1,29.6c0,1.4-0.3,2.7-1,3.9c-0.7,1.2-1.6,2.1-2.9,2.8c-1.3,0.7-2.9,1.1-4.7,1.1c-1.9,0-3.5-0.4-4.8-1.1
				c-1.3-0.7-2.3-1.7-2.9-2.9c-0.6-1.2-1-2.5-1-3.8c0-1.4,0.3-2.6,0.9-3.8c0.6-1.2,1.6-2.1,2.9-2.9c1.3-0.7,2.9-1.1,4.8-1.1
				c1.4,0,2.7,0.2,3.8,0.6c1.1,0.4,2,1,2.7,1.7c0.7,0.7,1.2,1.5,1.6,2.5C180.9,27.5,181.1,28.5,181.1,29.6 M176.4,29.6
				c0-0.6-0.1-1.1-0.2-1.6c-0.2-0.5-0.4-0.9-0.8-1.2c-0.3-0.4-0.8-0.6-1.3-0.8c-0.5-0.2-1.1-0.3-1.7-0.3c-1.2,0-2.2,0.4-2.9,1.1
				c-0.7,0.7-1,1.7-1,2.8c0,1.2,0.3,2.1,1.1,2.8c0.7,0.7,1.7,1.1,2.9,1.1c0.8,0,1.6-0.2,2.1-0.5c0.6-0.3,1-0.8,1.4-1.4
				C176.3,31,176.4,30.3,176.4,29.6"/>
			<path class="st0" d="M197.5,37.2h-4.9l-1.2-2.7c-0.4-1-0.8-1.7-1.2-2.2c-0.4-0.5-0.7-0.8-1-0.9c-0.3-0.1-0.8-0.2-1.3-0.2h-0.5
				v5.9h-4.6V22h7.8c1.2,0,2.3,0.3,3.1,0.8c0.8,0.5,1.4,1.1,1.7,1.9c0.4,0.7,0.5,1.4,0.5,2.1c0,0.8-0.2,1.4-0.4,1.9
				c-0.3,0.5-0.6,0.9-0.9,1.2c-0.3,0.2-0.7,0.5-1.1,0.7c0.5,0.3,0.9,0.6,1.2,1c0.3,0.4,0.8,1.2,1.3,2.4L197.5,37.2z M191.2,26.8
				c0-0.7-0.2-1.2-0.7-1.5c-0.5-0.3-1.2-0.4-2.3-0.4h-1v3.7h1c1.1,0,1.9-0.1,2.3-0.4C191,28,191.2,27.5,191.2,26.8"/>
			<path class="st1" d="M156.3,43.7c0.4,0,1,0.2,1.3,0.6l0.1,0.1l1-0.8l-0.1-0.1c-0.6-0.8-1.5-1.2-2.5-1.2c-1.7,0-3.2,1.4-3.2,3.2
				c0,1.8,1.4,3.2,3.2,3.2c1,0,1.9-0.5,2.5-1.2l0.1-0.1l-1-0.8l-0.1,0.1c-0.3,0.4-0.9,0.6-1.3,0.6c-0.9,0-1.6-0.8-1.6-1.8
				C154.8,44.5,155.4,43.7,156.3,43.7"/>
			<path class="st1" d="M163.4,47.3c-0.9,0-1.6-0.8-1.6-1.8c0-1,0.7-1.8,1.6-1.8c0.9,0,1.6,0.8,1.6,1.8
				C165,46.5,164.3,47.3,163.4,47.3 M163.4,42.3c-1.8,0-3.3,1.4-3.3,3.2c0,1.8,1.5,3.2,3.3,3.2c1.8,0,3.3-1.4,3.3-3.2
				C166.7,43.7,165.2,42.3,163.4,42.3"/>
			<path class="st1" d="M177.6,47.3c-0.9,0-1.6-0.8-1.6-1.8c0-1,0.7-1.8,1.6-1.8c0.9,0,1.6,0.8,1.6,1.8
				C179.2,46.5,178.5,47.3,177.6,47.3 M177.6,42.3c-1.8,0-3.3,1.4-3.3,3.2c0,1.8,1.5,3.2,3.3,3.2c1.8,0,3.3-1.4,3.3-3.2
				C180.9,43.7,179.4,42.3,177.6,42.3"/>
			<path class="st1" d="M185.8,42.4c0,0,0.1,0,0.1,0c0.2,0,0.4-0.1,0.6-0.1c0.1,0,0.2,0,0.3,0c1.5,0.1,2.5,1.3,2.5,3v3.3h-1.6v-3.3
				c0-1.1-0.7-1.5-1.3-1.5c-0.7,0-1.4,0.5-1.4,1.3v3.6h-1.6v-6.2l0.2,0.1c0.3,0.2,0.6,0.3,0.9,0.3c0.3,0,0.6-0.1,0.8-0.2
				C185.1,42.6,185.6,42.4,185.8,42.4"/>
			<path class="st1" d="M194.5,47.3c-0.8,0-1.4-0.8-1.4-1.8c0-1,0.6-1.8,1.4-1.8c0.8,0,1.4,0.8,1.4,1.8
				C195.9,46.5,195.3,47.3,194.5,47.3 M195.7,48.3c0.2-0.1,0.5-0.1,0.7-0.1c0.4,0,0.8,0.1,1.1,0.4l0-6.2l-0.2,0.1
				c-0.3,0.2-0.6,0.3-0.9,0.3c-0.3,0-0.6-0.1-0.8-0.2c0,0,0,0-0.1-0.1c-0.1,0-0.3-0.1-0.4-0.2c0,0-0.1,0-0.2,0c0,0-0.3-0.1-0.5-0.1
				c0,0-0.1,0-0.1,0h0h0h0c-1.6,0-3,1.4-3,3.2c0,1.8,1.3,3.2,3,3.2c0.4,0,0.8-0.1,1.2-0.3L195.7,48.3z"/>
			<path class="st1" d="M170.5,45c0-0.5,0.4-0.9,0.9-1c0.1,0,0.8-0.1,1.2,0.4v-2.1c0,0-0.3,0-0.5,0c-0.4,0-0.8,0.1-1.1,0.3l-0.2,0.1
				c-0.2,0.1-0.5,0.2-0.8,0.2c-0.3,0-0.6-0.1-0.9-0.3l-0.2-0.1v6.2h1.7V45z"/>
			<path class="st2" d="M108.8,46.7c0,0.4-0.1,0.7-0.3,1c-0.2,0.3-0.5,0.5-0.9,0.7c-0.4,0.1-0.8,0.2-1.3,0.2c-0.1,0-0.3,0-0.5,0
				c-0.2,0-0.4-0.1-0.8-0.1c-0.3-0.1-0.6-0.2-1-0.3v-1.6c0.3,0.2,0.6,0.4,1,0.5c0.3,0.1,0.6,0.2,1,0.2c0.3,0,0.5-0.1,0.6-0.2
				c0.1-0.1,0.1-0.2,0.1-0.3c0-0.2-0.1-0.3-0.2-0.4c-0.2-0.1-0.4-0.2-0.7-0.4c-0.4-0.1-0.7-0.3-0.9-0.5c-0.3-0.2-0.5-0.4-0.6-0.6
				c-0.2-0.3-0.2-0.6-0.2-0.9c0-0.3,0.1-0.7,0.3-0.9c0.2-0.3,0.4-0.5,0.8-0.7c0.3-0.2,0.8-0.3,1.3-0.3c0.4,0,0.7,0,1,0.1
				c0.3,0.1,0.5,0.1,0.7,0.2c0.2,0.1,0.3,0.2,0.4,0.2v1.5c-0.3-0.2-0.5-0.3-0.9-0.5c-0.3-0.1-0.7-0.2-1-0.2c-0.2,0-0.4,0-0.5,0.1
				c-0.1,0.1-0.2,0.2-0.2,0.3c0,0.1,0.1,0.2,0.2,0.3c0.1,0.1,0.3,0.2,0.6,0.3c0.5,0.2,0.9,0.4,1.2,0.6c0.3,0.2,0.5,0.4,0.7,0.6
				C108.7,46.1,108.8,46.4,108.8,46.7"/>
			<path class="st2" d="M116.6,45.5c0,0.6-0.1,1.1-0.4,1.6c-0.3,0.5-0.7,0.9-1.2,1.2c-0.5,0.3-1.2,0.4-2,0.4c-0.8,0-1.4-0.1-2-0.5
				c-0.5-0.3-0.9-0.7-1.2-1.2c-0.3-0.5-0.4-1-0.4-1.6c0-0.6,0.1-1.1,0.4-1.6c0.3-0.5,0.7-0.9,1.2-1.2c0.5-0.3,1.2-0.5,2-0.5
				c0.6,0,1.1,0.1,1.5,0.2c0.5,0.2,0.8,0.4,1.1,0.7c0.3,0.3,0.5,0.6,0.7,1C116.5,44.6,116.6,45,116.6,45.5 M114.7,45.5
				c0-0.2,0-0.5-0.1-0.6c-0.1-0.2-0.2-0.4-0.3-0.5c-0.1-0.1-0.3-0.3-0.5-0.3c-0.2-0.1-0.4-0.1-0.7-0.1c-0.5,0-0.9,0.2-1.2,0.4
				c-0.3,0.3-0.4,0.7-0.4,1.2c0,0.5,0.1,0.9,0.4,1.2c0.3,0.3,0.7,0.4,1.2,0.4c0.3,0,0.6-0.1,0.9-0.2c0.2-0.1,0.4-0.3,0.6-0.6
				C114.6,46.1,114.7,45.8,114.7,45.5"/>
			<path class="st2" d="M123.9,45.6c0,0.7-0.1,1.2-0.4,1.6c-0.2,0.4-0.5,0.7-0.8,0.9c-0.5,0.4-1.1,0.5-1.9,0.5h-0.1h-3.3v-6.3h2.6
				c0.4,0,0.7,0,1,0.1c0.3,0,0.5,0.1,0.8,0.2c0.2,0.1,0.4,0.2,0.6,0.2c0.2,0.1,0.3,0.2,0.4,0.3c0.2,0.2,0.4,0.4,0.6,0.6
				c0.2,0.2,0.3,0.5,0.4,0.8C123.8,44.9,123.9,45.2,123.9,45.6 M122,45.5c0-0.5-0.1-0.9-0.3-1.2c-0.2-0.3-0.4-0.5-0.7-0.6
				c-0.3-0.1-0.6-0.1-0.8-0.1h-0.8v3.7h0.8c0.5,0,0.9-0.1,1.3-0.4C121.8,46.7,122,46.2,122,45.5"/>
			<rect x="124.7" y="42.3" class="st2" width="1.9" height="6.3"/>
			<polygon class="st2" points="134.7,48.6 132.8,48.6 132.8,45 131.1,47.1 131,47.1 129.3,45 129.3,48.6 127.4,48.6 127.4,42.3 
				129.2,42.3 131.1,44.7 133,42.3 134.7,42.3 			"/>
			<path class="st2" d="M142.8,48.6h-1.9l-0.5-1.3h-2.7l-0.5,1.3h-1.9l2.8-6.3h2.1L142.8,48.6z M139.9,46.2L139,44l-0.9,2.3H139.9z"
				/>
			<path class="st2" d="M148.5,48.1c-0.3,0.1-0.5,0.3-0.8,0.3c-0.3,0.1-0.5,0.1-0.8,0.2c-0.3,0-0.6,0-0.9,0c-0.5,0-1-0.1-1.5-0.2
				c-0.4-0.2-0.8-0.4-1.1-0.7c-0.3-0.3-0.6-0.6-0.7-1c-0.2-0.4-0.2-0.8-0.2-1.3c0-0.5,0.1-1,0.3-1.4c0.2-0.4,0.4-0.7,0.8-1
				c0.3-0.3,0.7-0.5,1.2-0.6c0.4-0.1,0.9-0.2,1.4-0.2c0.7,0,1.5,0.2,2.4,0.5v1.7c-0.3-0.2-0.6-0.4-0.9-0.5c-0.3-0.1-0.7-0.2-1.1-0.2
				c-0.4,0-0.7,0.1-1,0.2c-0.3,0.1-0.6,0.4-0.8,0.6c-0.2,0.3-0.3,0.6-0.3,0.9c0,0.3,0.1,0.6,0.3,0.9c0.2,0.3,0.4,0.5,0.7,0.6
				c0.3,0.2,0.6,0.2,1,0.2c0.3,0,0.6,0,0.9-0.1c0.3-0.1,0.5-0.2,0.7-0.2c0.2-0.1,0.4-0.2,0.6-0.3V48.1z"/>
			<polygon class="st0" points="93.4,41.1 90.4,44.1 90.4,48.7 101.8,48.7 101.8,44.1 98.8,41.1 96.9,41.1 96.9,40.3 95.5,40.3 
				95.5,41.1 			"/>
			<rect x="96.7" y="44.8" class="st3" width="4.4" height="3"/>
			<polygon class="st4" points="91.6,44.1 95.6,44.1 93.6,42.1 			"/>
			<rect x="91.4" y="44.8" class="st5" width="4.4" height="3"/>
			<polygon class="st6" points="94.4,41.9 96.6,44.1 100.9,44.1 98.7,41.9 			"/>
			<path class="st0" d="M200.2,24.3h0.2c0.2,0,0.4,0,0.5,0c0.1,0,0.1-0.1,0.1-0.1c0,0,0-0.1,0-0.2c0-0.1,0-0.1,0-0.2
				c0-0.1-0.1-0.1-0.1-0.1c-0.1,0-0.2,0-0.5,0h-0.2V24.3z M199.9,25.5v-2.1h0.4c0.4,0,0.6,0,0.7,0c0.1,0,0.2,0,0.3,0.1
				c0.1,0,0.1,0.1,0.2,0.2c0.1,0.1,0.1,0.2,0.1,0.3c0,0.2-0.1,0.3-0.2,0.4c-0.1,0.1-0.2,0.2-0.4,0.2c0.1,0,0.1,0.1,0.1,0.1
				c0,0,0.1,0.1,0.1,0.2c0,0,0.1,0.1,0.2,0.3l0.3,0.4h-0.5l-0.2-0.3c-0.1-0.2-0.2-0.4-0.3-0.4c-0.1-0.1-0.2-0.1-0.3-0.1h-0.1v0.9
				H199.9z M200.7,22.8c-0.3,0-0.5,0.1-0.8,0.2c-0.3,0.1-0.5,0.3-0.6,0.6c-0.2,0.3-0.2,0.5-0.2,0.8c0,0.3,0.1,0.5,0.2,0.8
				c0.1,0.3,0.3,0.5,0.6,0.6c0.3,0.1,0.5,0.2,0.8,0.2c0.3,0,0.6-0.1,0.8-0.2c0.3-0.1,0.5-0.3,0.6-0.6c0.1-0.2,0.2-0.5,0.2-0.8
				c0-0.3-0.1-0.6-0.2-0.8c-0.1-0.3-0.3-0.4-0.6-0.6C201.3,22.9,201,22.8,200.7,22.8 M200.7,22.4c0.3,0,0.7,0.1,1,0.3
				c0.3,0.2,0.6,0.4,0.7,0.7c0.2,0.3,0.3,0.7,0.3,1c0,0.3-0.1,0.7-0.3,1c-0.2,0.3-0.4,0.6-0.7,0.7c-0.3,0.2-0.6,0.3-1,0.3
				c-0.3,0-0.7-0.1-1-0.3c-0.3-0.2-0.6-0.4-0.7-0.7c-0.2-0.3-0.3-0.6-0.3-1c0-0.3,0.1-0.7,0.3-1c0.2-0.3,0.4-0.6,0.8-0.7
				C200,22.5,200.4,22.4,200.7,22.4"/>
		</g>
	</g>
</g>
</svg>
